PathFileType	4	(X/Y/Z)	s08c0302.trc
DataRate	CameraRate	NumFrames	NumMarkers	Units	OrigDataRate	OrigDataStartFrame	OrigNumFrames
200	200	5	50	mm	200	750	2000
Frame#	Time	racr			lacr			c7			jug			rlel			rdr			llel			ldr			s2			lic			ric			lasi			rasi			rpsi			lpsi			rgt			lgt			rth1			rth2			rth3			rth4			rlfc			rmfc			rsh1			rsh2			rsh3			rsh4			rlmal			rmmal			rcal			rtoe			rmt5			lth1			lth2			lth4			lth3			llfc			lmfc			llmal			lmmal			lcal			lmt5			lsh1			lsh2			lsh3			lsh4			ltoe			SBIKE			LBIKE			RBIKE			
		X1	Y1	Z1	X2	Y2	Z2	X3	Y3	Z3	X4	Y4	Z4	X5	Y5	Z5	X6	Y6	Z6	X7	Y7	Z7	X8	Y8	Z8	X9	Y9	Z9	X10	Y10	Z10	X11	Y11	Z11	X12	Y12	Z12	X13	Y13	Z13	X14	Y14	Z14	X15	Y15	Z15	X16	Y16	Z16	X17	Y17	Z17	X18	Y18	Z18	X19	Y19	Z19	X20	Y20	Z20	X21	Y21	Z21	X22	Y22	Z22	X23	Y23	Z23	X24	Y24	Z24	X25	Y25	Z25	X26	Y26	Z26	X27	Y27	Z27	X28	Y28	Z28	X29	Y29	Z29	X30	Y30	Z30	X31	Y31	Z31	X32	Y32	Z32	X33	Y33	Z33	X34	Y34	Z34	X35	Y35	Z35	X36	Y36	Z36	X37	Y37	Z37	X38	Y38	Z38	X39	Y39	Z39	X40	Y40	Z40	X41	Y41	Z41	X42	Y42	Z42	X43	Y43	Z43	X44	Y44	Z44	X45	Y45	Z45	X46	Y46	Z46	X47	Y47	Z47	X48	Y48	Z48	X49	Y49	Z49	X50	Y50	Z50	
750	3.7500	842.156176	1388.686238	-96.167933	772.756938	1395.277706	-427.402668	785.591889	1452.315475	-244.108293	761.717624	1293.172200	-255.341765	738.776696	1153.353706	55.576587	802.366229	891.806970	-52.228007	682.005055	1129.754172	-509.519110	805.864853	888.555256	-422.312634	222.352213	1238.633562	-163.336016	361.183391	1254.957568	-331.617385	420.418346	1185.974845	-40.654652	383.824006	1197.730655	-303.705742	422.418816	1128.923766	-80.340171	271.557868	1259.465000	-106.953432	252.131549	1288.035678	-199.306626	303.464337	1080.453791	-21.080533	303.015129	1156.010350	-383.133776	337.091199	922.426243	-21.437587	369.289789	840.288861	-32.164809	355.090151	755.003751	-45.552927	403.944010	845.405440	-43.727166	372.962672	640.764255	-69.888315	331.480304	635.289460	-171.921377	314.032784	523.223689	-30.036701	316.264756	435.673233	-49.925455	275.420374	359.198021	-53.368946	341.103858	434.173562	-82.653695	239.991152	243.928176	-57.403241	251.469931	262.310497	-148.809727	157.559363	229.284415	-101.507761	449.087862	163.010925	-108.379008	356.544349	148.555382	-40.229937	396.326089	1054.917211	-394.711070	473.325548	1013.341284	-393.669884	497.713490	1036.301051	-375.817884	520.011913	937.830031	-401.668935	571.326101	823.149300	-389.110364	562.810607	790.436261	-283.920605	212.059933	617.167505	-396.011879	246.554994	608.157818	-313.919801	148.432817	646.437502	-356.298745	249.881114	458.823190	-420.405293	470.212074	754.460619	-411.034544	406.139462	698.548192	-397.103328	321.057762	676.860169	-398.584247	420.568912	676.867227	-367.997090	327.228632	419.034988	-349.836593	-145.152950	936.124871	-224.038866	10.066743	80.331828	-425.042826	10.053606	79.915913	-27.117360	
751	3.7550	841.479354	1394.233174	-100.605407	769.279000	1398.741886	-431.794988	783.207299	1456.712772	-248.174349	761.150297	1297.302534	-259.067509	742.556415	1156.773447	50.917898	803.234312	891.865969	-52.599912	680.073042	1131.054168	-511.518980	805.959667	889.015181	-422.294785	224.017998	1237.906361	-159.293270	359.357331	1256.807887	-329.552770	424.209974	1186.141195	-40.067817	383.858601	1199.880822	-302.034659	424.579319	1127.588505	-80.287810	275.685298	1257.948886	-105.033809	252.496423	1287.681410	-195.248041	306.242724	1080.561496	-19.259495	302.574229	1158.840883	-381.055730	335.208684	922.261213	-19.553620	365.425744	839.244055	-30.098236	349.556776	754.324046	-42.276759	399.970129	843.414897	-42.391237	363.785334	639.881609	-67.911525	321.407598	635.292252	-169.804239	304.566827	522.653467	-28.054396	307.071247	434.567756	-47.611747	266.542828	358.487476	-51.889093	331.643388	433.883320	-80.537063	231.925547	242.681656	-56.725665	243.367626	261.467132	-147.873405	149.851167	230.165681	-100.788538	439.849858	156.987969	-108.270913	347.005709	144.715183	-39.994247	396.841458	1059.101258	-393.386275	474.789971	1018.936647	-394.072781	498.853227	1042.232906	-376.190654	522.508850	944.216781	-402.957331	576.361443	830.034233	-391.002427	569.164600	797.053236	-285.105521	219.789007	620.150849	-395.892977	254.518527	611.668718	-314.063156	155.330693	648.795698	-356.072142	259.886304	463.395960	-420.875874	476.663634	760.299692	-412.449440	413.140585	703.710699	-398.184957	328.246024	681.269681	-399.223407	427.982497	681.966488	-369.250065	337.886745	424.432678	-350.292457	-145.218210	936.110942	-224.032993	10.054652	80.327858	-425.060742	10.059244	79.911638	-27.120319	
752	3.7600	840.622283	1399.751057	-105.087185	765.807489	1402.406037	-436.007582	780.651502	1461.032928	-252.401886	758.517051	1301.312609	-260.831670	746.476336	1160.159924	46.251798	804.493837	891.967984	-52.397521	679.086719	1132.253248	-511.476742	806.085575	889.516595	-422.345313	225.281062	1238.073681	-155.665217	357.873139	1258.788599	-327.721793	427.812136	1186.916798	-39.495789	383.903570	1202.210642	-300.530131	426.774557	1126.503992	-80.410842	278.337648	1258.053587	-102.276745	253.452009	1287.658914	-191.708180	308.624541	1080.921567	-17.654314	302.640169	1161.762755	-378.988609	333.409580	922.772193	-17.243446	361.752295	838.982562	-27.693442	343.555820	754.436328	-39.326066	396.262701	842.327715	-40.651504	355.157022	639.798391	-65.640693	314.233411	634.176594	-167.219527	295.305416	522.898179	-25.947432	298.391680	435.407921	-45.819256	257.959031	358.683519	-50.383040	323.103556	434.286480	-78.370906	224.113102	242.622660	-56.124662	235.868566	261.706891	-146.908349	142.528620	232.295507	-100.389381	430.378986	150.965905	-108.197035	337.262602	141.330944	-39.793891	397.498326	1063.542645	-392.354939	476.017414	1024.590839	-394.853384	500.191113	1048.051845	-376.858878	524.603047	950.475037	-404.587132	581.037364	836.820018	-392.890337	575.411730	803.461714	-286.873766	227.654555	622.426494	-396.031996	262.500220	614.461568	-314.291701	162.263732	650.269750	-356.117404	270.210032	466.850127	-421.037763	483.089108	765.711911	-413.816913	420.131417	708.424053	-399.450501	335.478088	684.919036	-399.968860	435.333805	686.739668	-370.698902	348.903586	429.402283	-350.417992	-145.278782	936.106144	-223.948971	10.039052	80.343156	-425.055985	10.067937	79.916772	-27.102954	
753	3.7650	839.622906	1405.268580	-109.479670	762.425988	1406.265178	-439.949181	777.910919	1465.388852	-256.821145	755.909788	1305.053639	-262.920939	750.423303	1163.628364	41.533150	804.577734	892.082937	-53.531652	678.348163	1133.604995	-511.380512	808.208699	891.788306	-426.024388	226.715370	1238.827350	-152.976841	356.572269	1260.942098	-325.898522	431.041410	1188.291255	-39.088921	384.131642	1204.523777	-298.917521	429.242267	1126.381188	-79.982814	279.782804	1259.186206	-98.948009	253.819178	1288.678312	-188.165481	310.989572	1081.919725	-15.839311	303.067629	1164.940901	-377.107736	332.071858	923.884781	-14.853716	358.256015	839.453438	-25.066074	338.038498	755.104642	-36.862555	393.187496	841.930104	-38.270037	347.213881	640.457593	-63.393400	306.951534	635.193365	-165.279270	286.585337	523.992043	-23.807157	290.131532	436.592019	-43.642931	249.861098	359.764050	-48.966074	315.180628	435.528061	-76.103709	216.761600	243.638944	-55.707107	229.216483	262.763022	-146.024831	135.599433	235.695568	-100.298192	420.856371	145.251625	-107.855629	327.354286	138.628328	-39.592098	398.006162	1068.145546	-391.631792	477.079825	1030.146238	-395.609052	500.291792	1053.782915	-378.705884	526.238515	956.547771	-406.405882	584.997472	843.362301	-394.420435	581.404969	809.912471	-288.799362	235.510337	623.947602	-396.387671	270.219383	616.494454	-314.721360	168.670267	650.998584	-356.817321	280.626107	469.687853	-421.526566	489.120715	770.826493	-415.483251	426.963591	712.629752	-400.719282	342.631387	688.008849	-400.969338	442.557514	691.227004	-372.038924	360.077087	433.987099	-350.424459	-145.366710	936.091581	-223.975522	10.030540	80.345653	-425.088973	10.046987	79.945155	-27.103627	
754	3.7700	838.490772	1410.721272	-113.888368	759.093164	1410.206940	-443.494508	775.025164	1469.592748	-261.364729	753.429022	1309.087087	-265.667471	754.224150	1167.073280	37.055103	805.183296	892.221377	-53.958425	677.742722	1135.102713	-511.272632	808.226305	892.993015	-426.563749	227.353940	1240.500519	-149.837341	355.347299	1263.152536	-324.305098	434.014756	1190.096043	-38.810892	384.448432	1207.041076	-297.341704	431.659965	1127.190460	-79.428144	282.153498	1260.296522	-96.220415	252.863001	1290.282467	-182.565249	313.099875	1083.402325	-13.868527	303.576923	1168.330003	-375.313253	330.944063	925.457856	-12.363570	355.229679	840.513370	-22.319974	333.327448	756.760464	-34.034699	390.148759	842.340267	-35.751516	340.451391	642.233057	-60.534402	301.140145	637.145851	-163.636283	278.485080	525.808745	-21.969782	281.750076	438.404017	-42.378350	242.333907	361.618507	-47.748345	307.931476	436.809941	-74.458533	209.855548	245.352557	-55.368608	223.341893	264.462088	-145.186819	129.154466	240.029045	-100.389026	411.180948	139.867049	-107.504087	317.467909	136.610241	-39.354650	398.397192	1072.658164	-390.873306	477.791945	1035.225891	-395.793392	500.937094	1059.468987	-379.853257	527.410609	962.371605	-408.194855	588.752280	849.783577	-396.744930	587.184412	816.355077	-290.972702	243.013524	624.867765	-396.890101	277.840109	617.876429	-315.494619	175.008846	650.848559	-357.444951	290.860201	471.950017	-421.948864	494.844783	775.434276	-417.270688	433.577241	716.397691	-402.122808	349.452051	690.729534	-402.677111	449.486141	695.295307	-373.419006	371.231944	438.194031	-350.894176	-145.454657	936.113334	-224.009547	10.008097	80.393957	-425.083087	10.045501	79.938672	-27.142101	
